<svg xmlns="http://www.w3.org/2000/svg" width="655.359" height="655.359" fill-rule="evenodd" clip-rule="evenodd" image-rendering="optimizeQuality" shape-rendering="geometricPrecision" text-rendering="geometricPrecision" viewBox="0 0 6.827 6.827"><path fill="#1e88e5" d="M3.44243 0.884874c0.246122,0.268453 0.482421,0.546921 0.702138,0.837469 0.184654,0.244181 0.358374,0.49787 0.513213,0.762071 0.234327,0.399846 0.437362,0.843713 0.529661,1.3001 0.035811,0.177063 0.055126,0.358098 0.0507047,0.538854 -0.00384646,0.157087 -0.0257283,0.313409 -0.0696575,0.464409 -0.0786929,0.2705 -0.22374,0.508327 -0.430232,0.700118 -0.354661,0.329406 -0.846394,0.485406 -1.32502,0.485429 -0.478583,1.9685e-005 -0.970319,-0.155898 -1.32496,-0.485287 -0.20648,-0.191776 -0.351488,-0.429587 -0.430154,-0.700075 -0.0439134,-0.150996 -0.0657717,-0.307319 -0.0696024,-0.464398 -0.00440157,-0.180764 0.014937,-0.361799 0.0507677,-0.538862 0.0923504,-0.456413 0.295433,-0.900295 0.529799,-1.30015 0.154862,-0.26422 0.32861,-0.517929 0.513283,-0.762134 0.219744,-0.290571 0.456079,-0.569063 0.70222,-0.837543l0.0289213 -0.0315472 0.0289213 0.0315472z"/><path fill="#fff" d="M3.1375 3.55728c-0.0526063,-0.057378 -0.117417,-0.0837008 -0.195059,-0.0837008 -0.0796142,0 -0.14574,0.0257835 -0.192748,0.0914134 -0.0505709,0.0706024 -0.07,0.152925 -0.07,0.238961 0,0.0902165 0.0141339,0.197118 0.0767244,0.26713 0.0505591,0.0565512 0.112193,0.0840079 0.188031,0.0840079 0.0771654,0 0.140059,-0.0286339 0.191957,-0.0856142 0.0625039,-0.0686339 0.0798307,-0.164547 0.0798307,-0.254472 0,-0.0895866 -0.0159646,-0.189264 -0.0787362,-0.257724z"/><polygon fill="#fff" points="3.734 3.434 2.947 4.95 3.095 4.95 3.879 3.434"/><path fill="#fff" d="M3.87317 4.22888c-0.0797362,0 -0.146425,0.0253543 -0.193862,0.0909016 -0.0509646,0.0704252 -0.0698898,0.153594 -0.0698898,0.239472 0,0.0904921 0.014252,0.196551 0.0767953,0.266866 0.0503898,0.0566575 0.112157,0.0842638 0.187965,0.0842638 0.0775472,0 0.141102,-0.0281575 0.193256,-0.0855748 0.0624882,-0.0687835 0.0795354,-0.164843 0.0795354,-0.254843 0,-0.0893622 -0.0157638,-0.189067 -0.0784055,-0.257386 -0.0526929,-0.0574764 -0.117661,-0.0837008 -0.195394,-0.0837008z"/><path fill="#1e88e5" d="M3.03027 3.70272c-.0228425-.0249134-.0509882-.0363465-.0847008-.0363465-.0345709 0-.0632874.0111969-.0836969.0396969-.0219606.0306575-.0303976.0664055-.0303976.103764 0 .0391732.0061378.0855945.033315.115996.0219567.0245551.0487205.0364803.0816496.0364803.0335079 0 .0608189-.012437.0833543-.0371772.0271417-.0298031.0346654-.0714528.0346654-.1105 0-.0389016-.00693307-.082185-.034189-.111913zM3.96049 4.45801c-.0228425-.0249134-.0509882-.0363465-.0847008-.0363465-.0345709 0-.0632874.0111969-.0836969.0396969-.0219606.0306575-.0303976.0664055-.0303976.103764 0 .0391732.0061378.0855945.033315.115996.0219567.0245551.0487205.0364803.0816496.0364803.0335079 0 .0608189-.012437.0833543-.0371772.0271417-.0298031.0346654-.0714528.0346654-.1105 0-.0389016-.00693307-.082185-.034189-.111913z"/><rect width="6.827" height="6.827" fill="none"/></svg>